<?xml version="1.0" standalone="no"?>
<!DOCTYPE svg PUBLIC "-//W3C//DTD SVG 20010904//EN"
 "http://www.w3.org/TR/2001/REC-SVG-20010904/DTD/svg10.dtd">
<svg version="1.0" xmlns="http://www.w3.org/2000/svg"
 width="1024.000000pt" height="1024.000000pt" viewBox="0 0 1024.000000 1024.000000"
 preserveAspectRatio="xMidYMid meet">

<g transform="translate(0.000000,1024.000000) scale(0.100000,-0.100000)"
fill="#000000" stroke="none">
<path d="M6093 8449 c-56 -28 -143 -123 -175 -191 -71 -149 -50 -342 47 -426
l38 -34 -22 -91 c-13 -51 -47 -191 -76 -312 -38 -156 -57 -220 -67 -218 -7 0
-98 31 -203 68 -104 37 -270 94 -368 128 l-177 62 -493 -164 c-270 -90 -496
-164 -501 -165 -5 0 -27 25 -48 56 -44 67 -65 80 -132 88 l-49 5 -44 80 c-54
98 -80 119 -147 119 l-50 1 -31 74 c-17 41 -37 77 -44 79 -14 5 60 36 254 109
174 65 169 60 162 147 l-5 72 93 32 c122 44 130 58 90 170 -16 42 -38 104 -50
137 -18 52 -25 61 -58 74 -35 13 -42 12 -120 -18 -46 -17 -87 -31 -93 -31 -5
0 -22 21 -39 47 -16 26 -42 55 -57 66 l-26 20 -109 -40 c-59 -23 -233 -87
-385 -143 l-277 -103 -32 28 c-40 33 -56 31 -187 -27 -116 -51 -132 -65 -132
-119 0 -37 -3 -41 -37 -56 -78 -32 -88 -57 -52 -138 11 -25 19 -48 17 -50 -1
-1 -22 -12 -45 -24 -58 -29 -67 -49 -47 -103 l17 -44 -91 -199 c-161 -356
-205 -464 -199 -488 25 -98 36 -123 66 -148 l32 -26 -27 -56 c-26 -53 -27 -56
-13 -116 7 -34 20 -68 29 -75 8 -7 47 -26 85 -41 39 -16 75 -33 82 -37 17 -14
91 -12 107 2 8 6 32 52 52 101 40 98 37 95 128 83 l46 -7 0 -508 0 -509 -42
-21 c-23 -12 -71 -32 -107 -46 -36 -13 -93 -35 -126 -47 -33 -13 -92 -36 -132
-50 l-72 -27 -3 -46 c-3 -46 -3 -46 -55 -64 l-53 -18 0 88 0 87 106 21 c110
23 134 34 134 63 0 14 14 20 71 28 38 6 77 16 85 22 11 10 14 54 14 238 0 195
-2 228 -16 244 -10 10 -67 34 -128 53 -61 20 -127 43 -146 53 -34 16 -35 20
-40 82 -6 77 5 70 -205 135 -82 26 -159 53 -170 60 -11 7 -36 15 -55 18 -34 6
-34 6 -7 -5 16 -7 25 -18 23 -25 -4 -8 3 -12 17 -11 37 2 224 -61 231 -78 3
-8 11 -12 16 -9 12 8 109 -13 126 -26 7 -6 9 -30 6 -62 -5 -58 -9 -68 -21 -49
-6 10 -14 7 -34 -8 -43 -34 -34 -43 36 -38 43 4 71 1 88 -8 23 -13 23 -13 -11
-9 -34 4 5 -6 90 -23 36 -7 40 -28 5 -25 -37 3 -72 10 -83 17 -6 3 -13 2 -17
-4 -4 -6 -10 -8 -15 -5 -4 3 -10 -2 -13 -10 -5 -11 5 -14 51 -13 32 1 66 -3
76 -9 10 -5 29 -8 42 -5 19 3 22 7 13 18 -15 18 -2 18 66 0 l50 -13 3 -69 c4
-89 0 -104 -42 -137 -31 -24 -38 -26 -56 -15 -18 11 -23 10 -33 -3 -15 -21
-57 -34 -57 -19 0 7 -8 9 -20 5 -16 -5 -20 -2 -20 19 0 40 -38 46 -70 9 -23
-28 -90 -57 -75 -34 3 6 1 20 -5 31 -15 27 -66 28 -73 0 -3 -11 -13 -20 -22
-20 -9 0 -25 -10 -35 -22 -16 -20 -20 -21 -35 -8 -15 12 -19 12 -29 -1 -6 -9
-25 -18 -43 -21 -30 -4 -31 -3 -38 39 -3 24 -5 78 -4 120 2 59 -1 78 -12 81
-8 2 -28 10 -46 18 -49 22 -53 19 -54 -43 -1 -32 -3 -67 -4 -78 -1 -11 -2 -32
-3 -47 -1 -19 -7 -28 -19 -28 -10 0 -30 -14 -44 -31 -23 -28 -28 -30 -46 -19
-17 11 -25 10 -52 -9 l-31 -22 0 130 c0 117 -2 130 -17 124 -10 -4 -14 -2 -10
4 4 7 0 9 -10 7 -10 -2 -25 0 -33 6 -13 9 -13 11 0 19 8 6 11 13 7 17 -4 4
-13 2 -19 -4 -7 -7 -22 -12 -35 -12 -34 0 -151 45 -164 64 -12 16 -77 -3 -84
-25 -12 -38 4 -542 18 -551 7 -4 37 -15 67 -24 131 -37 135 -39 138 -67 5 -44
48 -60 142 -51 l79 6 -6 -148 c-4 -106 -9 -152 -18 -160 -8 -5 -85 -32 -172
-58 -87 -26 -174 -53 -193 -59 l-35 -13 -3 -239 c-1 -157 1 -242 8 -249 6 -6
39 -22 73 -36 l62 -25 -3 -105 c-2 -58 4 -329 12 -602 16 -541 17 -549 75
-586 14 -9 73 -59 130 -109 124 -110 94 -104 401 -70 l195 22 3 108 c1 59 4
107 6 107 2 0 53 -51 115 -113 98 -100 118 -116 168 -131 62 -20 112 -22 216
-8 37 5 69 6 72 4 3 -3 5 -54 5 -113 0 -102 1 -109 23 -123 12 -7 120 -48 239
-90 297 -105 302 -107 324 -153 15 -31 34 -46 95 -77 l76 -39 -5 -48 c-7 -71
1 -89 83 -187 61 -74 81 -92 109 -98 19 -3 128 -4 242 -2 l208 3 8 -41 c10
-48 -1 -42 263 -138 221 -80 521 -191 594 -220 36 -14 73 -26 83 -26 26 0 469
168 487 185 9 7 22 34 30 60 7 25 17 48 22 50 4 3 50 -10 101 -30 53 -20 110
-35 133 -34 50 0 215 59 226 79 4 8 11 37 14 63 5 40 12 51 38 68 28 17 43 19
127 13 l95 -6 52 74 c49 67 53 77 53 129 0 66 -2 65 135 124 111 48 113 49
117 88 3 28 10 35 58 58 30 15 173 66 317 114 144 48 269 92 277 98 10 9 17
39 21 102 3 50 8 101 11 114 l5 24 135 -6 c135 -5 135 -5 191 24 64 34 63 34
63 14 0 -25 34 -33 275 -60 324 -36 296 -39 418 48 56 41 129 92 163 115 36
24 66 52 72 69 13 32 46 768 40 878 -2 39 -12 86 -21 106 -13 26 -17 55 -15
105 l3 68 125 54 c69 29 130 60 137 68 16 22 13 558 -4 575 -12 12 -201 58
-241 59 -12 0 -39 7 -60 16 l-37 15 33 14 32 14 0 109 c0 91 -3 111 -17 124
-10 8 -74 27 -143 43 -69 15 -178 47 -242 71 -64 24 -121 44 -126 44 -4 0 -16
6 -26 13 -15 11 -19 44 -31 222 -7 116 -11 213 -9 217 2 3 23 9 45 13 76 13
80 24 74 198 -8 191 -11 213 -36 231 -12 8 -76 29 -144 46 -72 19 -133 41
-148 54 l-25 21 44 185 c70 300 122 512 138 565 l15 50 78 0 c67 0 85 4 126
28 49 29 113 101 150 171 19 35 22 57 22 146 0 96 -3 110 -28 158 -37 71 -89
126 -142 152 -34 17 -76 24 -182 31 -461 31 -704 63 -993 130 -221 51 -516
150 -724 241 -186 82 -236 91 -303 57z m189 -60 c92 -46 311 -133 463 -182
392 -128 751 -193 1253 -227 85 -5 168 -10 185 -10 24 0 28 -3 17 -10 -8 -5
-25 -10 -38 -10 -62 0 -153 -77 -196 -165 -49 -100 -60 -242 -23 -299 21 -32
70 -35 106 -7 19 14 21 22 13 37 -5 10 -13 55 -17 99 -4 44 -13 89 -21 100 -9
12 -14 15 -14 6 0 -8 -3 -12 -6 -8 -3 3 -2 12 3 20 7 12 18 12 78 0 72 -14
105 -37 105 -74 0 -36 -39 -120 -75 -165 -78 -95 -117 -95 -365 1 -446 172
-753 246 -1205 290 -439 43 -525 57 -558 93 -36 40 -51 95 -51 192 0 87 2 101
33 166 40 88 110 160 172 179 50 15 62 13 141 -26z m-2444 -212 c20 -48 34
-88 31 -90 -4 -4 -356 -134 -526 -195 -40 -14 -73 -31 -73 -38 0 -7 11 -36 25
-65 13 -30 21 -57 17 -60 -4 -4 -47 -24 -97 -44 -124 -51 -123 -49 -102 -137
10 -39 14 -75 10 -78 -13 -12 -122 -50 -142 -50 -13 0 -30 19 -50 56 -28 48
-35 55 -59 52 -31 -4 -42 -24 -224 -428 -65 -146 -123 -269 -128 -274 -10 -10
-190 54 -190 68 0 10 104 240 200 441 31 66 74 161 96 212 31 73 45 95 67 104
15 6 29 10 30 8 1 -2 7 -13 13 -24 6 -11 23 -27 37 -35 35 -20 91 -4 221 63
80 41 101 56 99 72 -3 48 -13 85 -42 160 -17 43 -28 82 -23 85 16 14 753 289
766 286 5 -1 25 -41 44 -89z m-954 -64 c15 -25 23 -50 19 -53 -5 -4 -62 -29
-127 -54 -87 -35 -121 -44 -126 -35 -12 19 -21 92 -13 100 13 12 186 87 205
88 10 1 27 -18 42 -46z m3291 -438 c44 -9 184 -25 310 -36 361 -31 521 -60
790 -140 118 -36 426 -152 450 -170 17 -12 187 -59 216 -59 18 0 36 11 55 33
18 22 25 26 21 12 -18 -59 -97 -373 -176 -695 -100 -408 -131 -503 -202 -622
-93 -155 -185 -223 -299 -223 -80 1 -121 21 -152 75 -14 24 -33 42 -48 45 -18
4 -25 13 -26 30 -3 44 -11 52 -81 76 -79 28 -127 71 -185 167 l-38 62 40 20
c22 11 77 25 123 31 102 12 190 29 184 35 -2 3 -91 16 -197 29 -105 14 -219
32 -253 40 -34 8 -215 44 -402 81 -187 36 -343 70 -346 75 -8 13 -109 49 -136
49 -16 0 -23 -6 -23 -20 0 -11 -5 -20 -12 -20 -26 0 4 -10 142 -49 80 -23 191
-55 246 -72 56 -17 137 -39 180 -49 105 -24 197 -50 203 -56 10 -9 -16 -19
-286 -108 -349 -115 -944 -317 -1058 -360 l-90 -33 -3 -301 c-1 -166 -3 -302
-5 -302 -1 0 -51 18 -112 39 l-110 39 -6 183 c-4 101 -7 236 -8 300 l-1 116
-147 51 c-160 55 -225 74 -231 68 -2 -3 21 -12 51 -22 l54 -17 6 -126 c10
-180 8 -461 -1 -461 -16 0 -207 72 -221 83 -17 14 -11 179 7 185 9 3 12 58 12
194 0 170 2 189 16 184 45 -17 62 -14 19 4 -27 11 -53 20 -57 20 -5 0 -8 -88
-8 -196 0 -183 -1 -196 -17 -189 -37 15 -204 75 -208 75 -3 0 -5 -54 -5 -120
l0 -120 -27 6 c-16 4 -59 16 -98 28 l-70 22 -5 319 -5 318 -100 32 c-55 18
-154 49 -220 69 -66 21 -122 41 -125 45 -3 5 -27 15 -55 23 -27 9 -77 25 -110
37 -33 11 -116 39 -185 61 -197 64 -330 112 -330 120 0 3 24 14 53 23 29 9 79
27 111 40 l57 24 102 -35 c118 -40 165 -43 227 -15 25 11 54 23 66 27 24 7 29
36 5 31 -21 -5 -66 -20 -116 -39 -22 -8 -60 -15 -85 -14 -25 0 -36 3 -25 5 11
3 23 10 27 17 5 7 8 7 8 0 0 -6 7 -11 15 -11 12 0 12 3 2 16 -9 12 -9 13 1 7
18 -11 16 38 -3 54 -11 9 -22 9 -46 1 -18 -6 -37 -11 -43 -11 -16 1 163 70
180 70 18 0 134 -80 134 -92 0 -4 9 -8 19 -8 11 0 22 -4 25 -8 3 -5 38 -21 78
-37 40 -15 78 -31 83 -36 6 -4 49 -17 95 -29 94 -24 140 -41 140 -52 0 -12
-50 -34 -118 -53 -35 -10 -59 -21 -55 -25 11 -9 205 -71 210 -67 2 2 -15 10
-37 17 -23 8 -43 17 -46 22 -7 11 15 32 54 52 19 10 30 21 26 28 -4 7 -3 8 4
4 7 -4 12 -17 12 -30 0 -35 32 -57 94 -63 30 -3 53 -9 51 -14 -3 -4 0 -11 6
-14 5 -4 8 -13 5 -21 -3 -8 -3 -14 0 -14 2 0 63 22 133 50 262 101 275 104
367 90 82 -13 94 -12 189 14 45 12 50 16 53 43 3 27 -1 32 -39 47 -25 10 -53
15 -71 11 -27 -6 -30 -4 -59 58 -37 81 -53 95 -109 99 -42 3 -47 7 -80 56 -41
63 -70 81 -127 82 -32 0 -45 5 -53 20 -10 19 -9 20 17 15 23 -5 25 -4 11 5
-10 6 -18 15 -18 20 0 5 8 11 18 13 9 3 -2 5 -25 6 -37 1 -46 6 -65 36 -13 19
-31 38 -42 41 -24 8 -13 16 57 42 77 29 105 28 207 -8 46 -17 95 -30 108 -30
28 0 142 49 142 61 0 4 17 6 38 3 49 -5 29 7 -75 45 l-80 29 -83 -29 c-46 -16
-85 -27 -87 -25 -2 2 31 16 74 31 43 15 92 33 108 40 17 7 77 28 135 46 58 18
148 47 201 66 53 18 101 33 108 33 6 0 40 -12 77 -26 46 -19 62 -29 52 -35 -8
-6 -2 -7 17 -3 20 3 56 -5 110 -26 44 -17 68 -28 53 -25 -21 4 -28 1 -28 -10
0 -8 -4 -15 -10 -15 -5 0 -10 -5 -10 -11 0 -5 4 -8 8 -5 5 3 9 -1 9 -8 0 -8
-8 -11 -19 -8 -10 2 -18 0 -18 -6 0 -5 -13 -15 -30 -22 -16 -7 -30 -16 -30
-21 0 -9 38 2 103 30 27 12 54 21 60 21 7 0 24 7 40 15 25 13 35 11 128 -20
56 -19 103 -36 106 -39 2 -2 -6 -7 -18 -11 -13 -4 -63 -26 -113 -50 -50 -23
-131 -57 -179 -75 l-89 -34 44 -22 c23 -13 50 -23 59 -24 9 0 22 -7 29 -15 13
-16 60 -20 76 -7 17 15 194 78 194 69 0 -2 -13 -37 -30 -77 -16 -40 -28 -76
-25 -80 14 -22 -102 -76 -348 -162 -47 -16 -56 -23 -46 -34 6 -8 17 -14 23
-14 6 0 47 -14 90 -30 l78 -30 70 22 c68 22 70 22 135 5 36 -9 69 -15 73 -12
20 12 182 612 280 1032 l33 141 26 -19 c14 -10 62 -26 106 -34z m-2912 -86
c48 -2 87 -5 87 -8 0 -11 20 -136 26 -160 l5 -24 -91 5 c-50 3 -94 8 -97 11
-5 5 -32 155 -33 180 0 5 4 6 8 3 5 -3 47 -6 95 -7z m337 -276 c6 -38 15 -80
20 -95 9 -27 7 -28 -23 -28 -18 0 -62 3 -98 6 l-66 7 -15 88 -14 89 92 0 92 0
12 -67z m244 -215 c24 -121 30 -112 -76 -104 -50 3 -93 7 -94 9 -2 1 -9 42
-17 90 l-14 87 92 0 92 0 17 -82z m-761 47 c18 4 40 9 49 11 13 4 25 -10 47
-55 37 -73 61 -91 122 -91 41 0 48 -3 53 -23 3 -13 17 -40 30 -60 14 -20 21
-39 16 -42 -5 -3 -134 -48 -287 -99 -153 -51 -286 -97 -295 -101 -10 -4 -18
-5 -18 -2 0 6 185 429 200 457 9 17 14 18 31 9 11 -5 35 -7 52 -4z m2630 -139
c9 5 9 4 1 -5 -8 -8 -18 -9 -37 -2 -15 6 -27 13 -27 16 0 2 12 0 26 -5 14 -6
31 -7 37 -4z m-1625 -113 c12 -53 21 -97 19 -97 -1 -1 -45 0 -98 2 l-96 3 -7
52 c-3 29 -9 69 -12 89 l-6 37 58 4 c33 2 73 4 89 5 l31 2 22 -97z m236 -145
c25 -90 36 -132 33 -134 -1 -1 -44 -3 -96 -5 l-94 -4 -17 88 c-19 98 -21 94
50 100 117 9 108 13 124 -45z m3676 -298 c35 -14 41 -20 28 -25 -10 -4 -18
-16 -18 -26 0 -10 -5 -19 -12 -19 -6 0 -3 -7 8 -15 10 -7 -14 -2 -53 13 -40
15 -73 31 -73 36 0 16 43 56 59 55 9 0 36 -8 61 -19z m-4453 -160 c-10 -13
-10 -13 3 -3 9 6 22 11 30 9 25 -5 73 -17 107 -28 l32 -9 3 -285 c2 -185 0
-284 -7 -284 -5 1 -53 16 -105 34 l-95 33 -2 286 -2 285 24 -12 c19 -9 21 -14
12 -26z m-847 -839 c25 -10 25 -10 2 -10 -12 -1 -42 -10 -67 -22 -53 -25 -70
-21 -70 14 -1 14 3 23 7 21 4 -3 8 -1 8 4 0 11 88 6 120 -7z m5535 -15 c42
-18 45 -28 8 -20 -16 3 -39 1 -53 -4 l-25 -10 28 -11 c16 -6 37 -11 48 -11 31
0 17 -23 -20 -36 l-32 -10 41 -13 c23 -7 44 -10 46 -8 3 3 -8 8 -23 12 -25 7
-26 8 -8 15 11 4 32 3 47 -2 18 -6 33 -6 45 1 16 9 16 10 1 11 -23 0 -72 19
-66 25 3 3 29 12 59 19 40 11 68 12 114 5 104 -17 195 -40 190 -49 -3 -4 -29
-14 -57 -21 -29 -6 -60 -16 -68 -20 -8 -5 -73 -20 -145 -34 -71 -14 -150 -31
-175 -39 l-45 -13 -3 -88 c-3 -98 0 -96 -85 -60 -36 15 -37 17 -37 68 0 71 8
81 60 74 23 -3 39 -2 34 2 -14 12 -171 71 -188 71 -12 0 -16 -17 -18 -82 l-3
-82 -85 -27 -85 -27 -3 84 c-3 83 -3 84 -35 101 -18 9 -63 26 -101 38 -39 12
-71 26 -73 31 -2 6 31 16 72 23 41 7 73 16 70 21 -5 8 114 4 163 -6 32 -6 27
-20 -10 -30 l-33 -8 45 -4 c24 -2 68 4 98 13 29 10 66 15 81 13 23 -3 27 -1
23 14 -3 12 -14 18 -30 18 -26 0 -26 0 -7 19 47 45 173 64 240 37z m105 -16
c12 -8 9 -10 -12 -10 -16 0 -28 5 -28 10 0 13 20 13 40 0z m-5853 -16 c33 -13
41 -20 33 -30 -13 -15 -101 -28 -128 -20 -27 9 -22 38 8 53 33 16 37 16 87 -3z
m5057 -10 c25 -9 19 -21 -15 -33 -48 -16 -69 -14 -69 8 0 27 44 40 84 25z
m-4824 -18 c0 -9 -8 -12 -27 -8 l-28 6 25 7 c14 4 26 7 28 8 1 1 2 -5 2 -13z
m-145 -6 c-11 -5 -27 -9 -35 -9 -13 -1 -13 0 0 9 8 5 24 9 35 9 l20 0 -20 -9z
m5312 4 c-3 -3 -12 -4 -19 -1 -8 3 -5 6 6 6 11 1 17 -2 13 -5z m-3177 -68 c14
-2 59 -17 100 -33 l75 -28 3 -89 c2 -76 1 -88 -12 -83 -9 4 -64 23 -123 43
-155 52 -143 41 -143 139 l0 85 38 -15 c20 -8 48 -16 62 -19z m-1987 5 c28
-28 -52 -50 -114 -32 -22 7 -37 16 -34 21 16 26 125 34 148 11z m4184 -38 c-3
-10 -5 -2 -5 17 0 19 2 27 5 18 2 -10 2 -26 0 -35z m-3147 -128 c-1 -17 -2
-18 -10 -4 -5 9 -36 27 -67 39 -87 35 -87 43 0 12 61 -22 77 -31 77 -47z m765
46 c67 -26 70 -28 71 -61 l1 -35 -4 33 c-4 31 -25 43 -38 22 -4 -6 -11 -8 -16
-4 -5 3 -7 10 -4 15 3 5 -1 6 -9 3 -9 -4 -18 1 -22 10 -3 9 -10 13 -15 10 -5
-3 -9 -1 -9 5 0 5 -12 14 -27 19 -16 6 -21 10 -13 11 8 0 47 -13 85 -28z
m-123 -89 c2 -28 0 -52 -4 -52 -5 0 -7 35 -7 78 2 78 6 69 11 -26z m195 -64
c-3 -7 -5 -2 -5 12 0 14 2 19 5 13 2 -7 2 -19 0 -25z m-141 -5 c-2 -2 -11 0
-20 3 -14 5 -15 9 -5 15 12 7 34 -10 25 -18z m557 -14 l97 -33 0 -137 0 -136
-110 40 -110 40 0 135 c0 103 3 133 13 130 6 -3 56 -20 110 -39z m-1673 -13
l115 -43 3 -121 3 -122 -53 21 c-29 12 -91 35 -137 52 -46 17 -80 32 -74 34 6
2 28 -3 48 -11 48 -20 68 -20 35 0 l-25 15 25 -5 c35 -8 60 19 60 65 0 20 -4
39 -10 41 -5 2 -10 17 -12 35 -1 17 -6 29 -12 26 -5 -3 -14 0 -20 8 -6 8 -27
22 -46 31 -61 29 -19 18 100 -26z m925 -17 l115 -41 0 -134 c0 -74 -4 -134 -9
-134 -5 0 -67 22 -137 49 l-129 48 -3 133 -3 132 25 -6 c14 -3 77 -25 141 -47z
m-1148 -6 c-3 -10 -5 -2 -5 17 0 19 2 27 5 18 2 -10 2 -26 0 -35z m5613 20
c-8 -3 -23 -10 -32 -15 -11 -5 -18 -5 -18 1 0 10 23 18 50 19 13 0 13 0 0 -5z
m77 1 c-3 -3 -12 -4 -19 -1 -8 3 -5 6 6 6 11 1 17 -2 13 -5z m-2909 -136 l-2
-123 -3 113 c-3 80 -7 112 -16 112 -7 0 -50 -16 -97 -35 -46 -19 -90 -35 -97
-35 -7 0 -14 -10 -14 -22 -1 -19 -2 -20 -6 -4 -3 10 0 23 5 28 9 9 202 83 225
87 4 0 6 -54 5 -121z m-4205 95 c-7 -2 -19 -2 -25 0 -7 3 -2 5 12 5 14 0 19
-2 13 -5z m461 -12 c4 -5 -3 -7 -14 -4 -23 6 -26 13 -6 13 8 0 17 -4 20 -9z
m39 -58 c-7 -2 -21 -2 -30 0 -10 3 -4 5 12 5 17 0 24 -2 18 -5z m-318 -24 c15
-7 12 -8 -12 -3 -21 3 -33 1 -33 -5 0 -6 -4 -11 -10 -11 -5 0 -7 7 -4 15 7 17
29 18 59 4z m500 -19 c-21 -8 -21 -8 25 -23 8 -3 -2 -6 -22 -6 -27 -1 -38 3
-38 13 0 15 15 24 40 25 9 0 7 -4 -5 -9z m1472 -14 c114 -39 108 -33 105 -120
l-4 -76 -89 0 -89 0 0 110 c0 61 1 110 3 110 2 0 35 -11 74 -24z m1041 -199
l3 -136 -83 31 c-46 17 -91 33 -100 35 -16 5 -18 20 -18 138 l0 134 98 -33 97
-33 3 -136z m-3045 176 c-7 -2 -19 -2 -25 0 -7 3 -2 5 12 5 14 0 19 -2 13 -5z
m557 -22 c25 -6 33 -30 15 -43 -12 -9 -101 -9 -133 0 -78 22 37 64 118 43z
m198 -22 c-18 -12 -71 -11 -63 1 3 5 13 6 22 3 10 -4 14 -2 10 4 -4 6 3 8 19
5 19 -3 22 -7 12 -13z m-541 -35 c-3 -3 -12 -4 -19 -1 -8 3 -5 6 6 6 11 1 17
-2 13 -5z m663 -15 c0 -23 -30 -23 -38 0 -3 10 0 12 12 8 10 -4 15 -3 11 3 -3
6 -1 10 4 10 6 0 11 -9 11 -21z m-92 -5 l37 -15 -34 -15 c-18 -8 -43 -14 -55
-14 -39 0 -96 21 -96 35 0 26 94 32 148 9z m-241 -20 c0 -17 0 -17 -31 -3 -14
7 -23 15 -21 19 8 13 52 -1 52 -16z m2720 -16 c-3 -8 -6 -5 -6 6 -1 11 2 17 5
13 3 -3 4 -12 1 -19z m2623 -28 c-8 -5 -31 -10 -50 -10 -26 0 -31 3 -20 10 8
5 31 10 50 10 26 0 31 -3 20 -10z m-5100 -10 c3 0 -2 -5 -10 -10 -21 -14 -167
-13 -176 1 -5 8 0 10 17 6 14 -4 38 -2 54 3 24 7 72 7 115 0z m5238 -20 c11
-18 10 -20 -10 -22 -13 0 -30 0 -38 1 -8 2 -37 2 -63 2 -26 -1 -53 2 -60 6
-19 12 44 32 103 33 45 0 58 -4 68 -20z m-5623 -71 c56 -16 120 -84 140 -150
18 -63 21 -352 4 -444 -31 -167 -117 -226 -349 -240 -167 -10 -150 12 -150
-194 l0 -176 -132 -18 c-73 -9 -141 -17 -150 -17 -17 0 -18 35 -18 594 l0 594
38 6 c31 5 311 37 432 49 76 8 147 6 185 -4z m3791 -196 c45 -112 85 -213 89
-225 6 -21 8 -20 23 17 9 22 50 119 92 215 l75 175 145 -3 c79 -2 145 -4 146
-5 1 -1 3 -247 5 -546 l4 -544 -95 2 c-52 1 -109 4 -126 7 -31 6 -31 6 -38 81
-3 42 -6 178 -7 302 l-1 226 -20 -45 c-11 -25 -43 -96 -71 -158 l-51 -113 -68
3 -69 3 -43 95 c-24 52 -56 122 -72 155 l-29 60 -3 -297 -2 -298 -48 0 c-26 0
-83 3 -127 6 l-80 7 -3 544 -2 544 147 -3 147 -3 82 -202z m-3506 177 c0 -5
-2 -10 -4 -10 -3 0 -8 5 -11 10 -3 6 -1 10 4 10 6 0 11 -4 11 -10z m4389 -16
l73 -7 -6 -45 c-3 -25 -6 -71 -6 -103 l0 -59 -107 0 c-163 0 -153 -8 -153 122
l0 110 63 -6 c34 -3 95 -9 136 -12z m-2899 -264 c0 -143 3 -260 8 -260 4 0 15
17 24 38 9 21 38 84 64 140 l47 102 138 0 138 0 -18 -32 c-10 -18 -57 -106
-105 -195 l-87 -162 62 -113 c125 -226 159 -292 153 -297 -3 -3 -60 -6 -127
-6 l-120 0 -30 50 c-17 28 -54 96 -82 152 -63 123 -68 117 -58 -73 l6 -131
-39 -6 c-21 -4 -78 -7 -125 -7 l-86 0 -7 516 c-4 284 -4 519 -2 522 5 5 131
17 214 21 l32 1 0 -260z m1440 115 l0 -105 65 0 65 0 0 -32 c0 -18 -3 -70 -7
-115 l-6 -83 -63 0 -64 0 0 -163 c0 -113 4 -167 12 -175 7 -7 38 -12 70 -12
l59 0 -3 -102 -3 -103 -137 0 c-122 0 -139 2 -164 21 -68 50 -68 53 -75 307
-3 128 -6 233 -7 235 -1 1 -20 2 -42 2 l-40 0 0 109 0 109 40 7 40 7 0 87 0
88 123 10 c67 5 125 10 130 11 4 1 7 -45 7 -103z m-1780 -219 l0 -123 -37 -7
c-21 -3 -72 -6 -113 -6 -41 0 -81 -4 -89 -9 -12 -8 -15 -41 -15 -168 l-1 -158
134 -3 134 -3 -7 -61 c-3 -33 -6 -84 -6 -113 l0 -52 -179 -8 c-168 -6 -180 -6
-219 14 -90 46 -102 92 -102 383 0 268 8 316 59 370 54 58 91 67 279 68 l162
0 0 -124z m1286 100 c42 -19 55 -32 75 -72 22 -45 24 -64 27 -216 l4 -167 -34
-5 c-35 -7 -275 -26 -314 -26 -21 0 -24 -5 -24 -40 0 -47 -17 -44 204 -40
l159 2 -6 -62 c-4 -35 -7 -83 -7 -107 l0 -44 -228 3 -229 3 -41 28 c-72 51
-77 69 -80 344 -2 156 1 256 8 283 14 51 69 114 112 127 18 6 98 11 178 12
133 1 149 -1 196 -23z m-1976 -6 c91 -47 103 -96 98 -421 -3 -244 -4 -256 -27
-302 -29 -60 -85 -102 -155 -117 -29 -6 -113 -12 -187 -13 -133 -2 -136 -2
-178 26 -28 19 -50 44 -64 75 -21 45 -22 61 -22 327 l0 280 30 60 c24 47 39
64 74 82 41 21 57 23 218 23 153 0 178 -2 213 -20z m3990 -416 l0 -407 -122 8
c-68 4 -124 8 -125 8 0 1 -4 181 -8 400 l-8 397 132 0 131 0 0 -406z m665 395
c25 -6 56 -23 71 -37 53 -53 54 -65 54 -459 l0 -365 -67 6 c-38 4 -94 9 -125
12 l-58 6 0 273 c0 150 -3 280 -6 289 -5 13 -22 16 -80 16 l-74 0 0 -286 0
-285 -52 5 c-29 3 -87 8 -129 11 l-77 6 -6 317 c-3 174 -9 356 -12 405 l-6 87
136 0 136 0 6 -25 c3 -14 8 -25 10 -25 2 0 27 9 56 21 28 11 77 24 107 28 31
5 60 9 64 10 5 0 28 -4 52 -10z m766 -20 c57 -14 101 -50 128 -104 25 -49 26
-53 23 -230 -2 -99 -6 -183 -10 -187 -4 -4 -98 -10 -210 -14 l-203 -7 3 -40
c4 -52 8 -53 234 -62 l176 -8 -7 -121 c-4 -66 -10 -124 -14 -128 -6 -7 -343
21 -457 37 -68 10 -127 54 -160 122 l-29 58 0 265 0 265 28 57 c31 64 71 95
137 106 55 9 316 3 361 -9z m-2911 -925 c112 -26 189 -86 232 -179 31 -69 32
-199 1 -266 -65 -144 -191 -198 -460 -199 l-113 0 0 -117 0 -116 -112 6 c-62
4 -134 7 -160 7 l-48 0 0 388 c0 213 3 411 6 440 l7 52 291 0 c226 0 306 -4
356 -16z m-905 -429 c79 -236 140 -433 136 -437 -3 -4 -76 -8 -161 -9 l-155
-2 -21 74 -21 74 -149 -4 c-82 -2 -152 -5 -155 -7 -3 -2 -16 -36 -28 -77 l-22
-74 -97 -6 c-105 -7 -232 -9 -232 -4 0 2 27 80 61 173 33 93 87 246 120 339
32 94 76 217 97 275 l38 105 110 6 c60 3 160 5 223 5 l114 -1 142 -430z m1582
425 l73 0 0 -450 0 -450 -43 0 c-24 0 -99 3 -165 7 l-122 6 0 450 0 450 92 -7
c50 -3 124 -6 165 -6z m-1194 -1187 c-7 -2 -19 -2 -25 0 -7 3 -2 5 12 5 14 0
19 -2 13 -5z m115 0 c-10 -2 -28 -2 -40 0 -13 2 -5 4 17 4 22 1 32 -1 23 -4z"/>
<path d="M5990 8013 c0 -48 27 -113 47 -113 7 0 16 0 20 0 13 0 2 83 -13 97
-7 8 -16 12 -19 11 -4 -2 -13 8 -20 22 -14 25 -14 24 -15 -17z"/>
<path d="M6186 7992 c-9 -36 10 -121 31 -144 10 -12 31 -18 56 -18 38 0 39 1
33 28 -4 15 -10 51 -13 80 -6 56 -14 64 -70 76 -28 7 -32 5 -37 -22z"/>
<path d="M6575 7874 c3 -26 9 -52 12 -60 5 -13 80 -30 90 -21 3 3 2 28 -2 56
-6 48 -9 51 -43 61 -63 17 -65 15 -57 -36z"/>
<path d="M6837 7406 c-72 -27 -137 -93 -137 -140 0 -22 40 -46 75 -46 21 0 40
9 56 26 33 36 62 45 98 33 46 -16 58 -73 23 -113 -10 -10 -43 -31 -74 -47 -64
-33 -105 -83 -115 -143 -5 -34 -4 -37 30 -51 64 -26 81 -21 104 34 19 45 27
53 90 85 110 55 142 108 130 212 -6 54 -46 109 -99 136 -49 26 -133 32 -181
14z"/>
<path d="M6585 7370 c-32 -7 -273 -105 -352 -142 -29 -14 -53 -34 -61 -51 -13
-26 -11 -32 11 -65 14 -20 81 -95 150 -167 123 -127 125 -129 148 -113 13 8
31 34 39 57 l14 41 -104 105 c-89 89 -102 106 -85 111 11 3 79 29 150 57 l130
52 14 43 c12 40 12 45 -5 62 -14 12 -27 15 -49 10z"/>
<path d="M7228 7228 c-9 -7 -21 -30 -28 -52 -14 -45 -18 -38 108 -175 45 -49
78 -92 73 -95 -5 -4 -67 -27 -138 -52 -70 -25 -133 -50 -139 -57 -17 -18 -34
-75 -27 -92 12 -33 51 -26 234 40 101 37 196 73 211 81 29 15 48 42 48 68 0 9
-61 85 -137 169 -144 161 -160 177 -178 177 -6 0 -18 -6 -27 -12z"/>
<path d="M5200 7170 c8 -5 22 -9 30 -9 10 0 8 3 -5 9 -27 12 -43 12 -25 0z"/>
<path d="M4838 7103 c7 -3 16 -2 19 1 4 3 -2 6 -13 5 -11 0 -14 -3 -6 -6z"/>
<path d="M4989 7033 c-13 -15 -12 -15 9 -4 23 12 28 21 13 21 -5 0 -15 -7 -22
-17z"/>
<path d="M5110 7003 c13 -9 42 -20 64 -24 23 -4 57 -10 76 -13 19 -3 -3 7 -50
24 -96 34 -127 39 -90 13z"/>
<path d="M4810 6960 c-8 -5 -10 -10 -5 -10 6 0 17 5 25 10 8 5 11 10 5 10 -5
0 -17 -5 -25 -10z"/>
<path d="M6743 6855 c-38 -16 -53 -42 -53 -89 0 -30 6 -40 33 -57 40 -25 83
-19 115 17 60 68 -11 166 -95 129z"/>
<path d="M5070 6690 c8 -5 20 -10 25 -10 6 0 3 5 -5 10 -8 5 -19 10 -25 10 -5
0 -3 -5 5 -10z"/>
<path d="M3520 6512 c8 -5 26 -13 40 -16 17 -5 20 -4 10 2 -8 5 -26 13 -40 16
-17 5 -20 4 -10 -2z"/>
<path d="M3632 6469 c26 -12 45 -25 42 -30 -6 -10 7 -12 30 -3 27 10 18 22
-26 32 -24 6 -54 13 -68 17 -14 3 -4 -4 22 -16z"/>
<path d="M5700 6316 c0 -2 7 -7 16 -10 8 -3 12 -2 9 4 -6 10 -25 14 -25 6z"/>
<path d="M7324 6251 c-121 -74 -161 -316 -69 -408 36 -36 50 -39 109 -22 29 8
36 13 25 20 -10 6 -10 9 -1 9 6 0 12 5 12 11 0 7 17 31 39 54 43 47 81 137 81
193 -1 118 -108 197 -196 143z"/>
<path d="M3552 6245 c0 -16 2 -22 5 -12 2 9 2 23 0 30 -3 6 -5 -1 -5 -18z"/>
<path d="M3570 6240 c0 -17 2 -19 14 -8 14 13 12 28 -5 28 -5 0 -9 -9 -9 -20z"/>
<path d="M8015 5310 c-20 -22 -10 -25 32 -9 15 6 53 14 83 18 l55 9 -76 1
c-64 1 -79 -2 -94 -19z"/>
<path d="M7728 5313 c6 -2 18 -2 25 0 6 3 1 5 -13 5 -14 0 -19 -2 -12 -5z"/>
<path d="M3310 4796 c0 -2 7 -7 16 -10 8 -3 12 -2 9 4 -6 10 -25 14 -25 6z"/>
<path d="M3803 4653 c9 -2 23 -2 30 0 6 3 -1 5 -18 5 -16 0 -22 -2 -12 -5z"/>
<path d="M1948 4273 l-58 -4 0 -149 0 -149 83 6 c135 10 127 1 127 151 0 143
-4 153 -59 150 -20 -1 -62 -3 -93 -5z"/>
<path d="M4707 4044 c-4 -4 -7 -36 -7 -72 l0 -65 53 7 c28 3 62 6 75 6 22 0
23 3 20 63 l-3 62 -65 3 c-36 2 -69 0 -73 -4z"/>
<path d="M2696 3995 c-9 -26 -7 -348 3 -364 7 -11 24 -12 78 -7 37 4 71 11 76
15 4 4 6 88 5 187 l-3 179 -76 3 c-63 2 -78 0 -83 -13z"/>
<path d="M8153 3969 c-8 -8 -13 -40 -13 -81 l0 -69 83 3 82 3 3 64 c2 35 -1
67 -5 71 -16 15 -137 22 -150 9z"/>
<path d="M5170 2960 l0 -110 90 0 c133 0 170 24 170 110 0 84 -41 110 -175
110 l-85 0 0 -110z"/>
<path d="M4171 2907 c-24 -78 -45 -148 -48 -154 -4 -10 16 -11 89 -7 51 4 94
8 96 9 4 4 -81 295 -87 295 -3 0 -26 -64 -50 -143z"/>
<path d="M1607 6443 c-14 -13 -7 -63 8 -63 9 0 15 9 15 23 0 26 -14 50 -23 40z"/>
<path d="M1870 6390 c0 -7 24 -20 36 -20 13 0 1 19 -16 23 -11 3 -20 2 -20 -3z"/>
<path d="M1940 6370 c0 -5 5 -10 11 -10 5 0 7 5 4 10 -3 6 -8 10 -11 10 -2 0
-4 -4 -4 -10z"/>
<path d="M2000 6351 c0 -6 5 -13 10 -16 6 -3 10 1 10 9 0 9 -4 16 -10 16 -5 0
-10 -4 -10 -9z"/>
<path d="M1477 6343 c-13 -12 -8 -221 5 -230 21 -12 313 -17 333 -5 5 4 57 5
115 4 97 -3 107 -1 134 20 l28 24 -20 44 c-11 25 -22 54 -24 65 -2 12 -10 19
-21 17 -9 -2 -17 2 -17 8 0 5 -12 10 -27 10 -23 0 -25 2 -13 11 12 8 9 9 -12
5 -16 -4 -28 -2 -28 4 0 21 -31 9 -40 -15 -6 -15 -17 -25 -30 -25 -11 0 -20
-7 -20 -15 0 -8 -4 -15 -10 -15 -5 0 -10 5 -10 10 0 15 -31 12 -50 -5 -15 -14
-20 -13 -44 10 -15 14 -31 25 -37 25 -18 0 -9 21 13 29 21 8 21 8 -5 13 -15 3
-38 -1 -52 -8 -21 -11 -35 -10 -92 7 -80 22 -68 20 -76 12z"/>
<path d="M1820 6320 c-21 -7 -18 -8 18 -9 26 -1 41 3 37 9 -7 11 -19 11 -55 0z"/>
<path d="M2121 6220 c-19 -11 5 -23 25 -12 14 8 14 10 2 15 -8 3 -21 2 -27 -3z"/>
<path d="M1290 6121 c0 -5 9 -7 20 -4 11 3 20 7 20 9 0 2 -9 4 -20 4 -11 0
-20 -4 -20 -9z"/>
<path d="M1398 6103 c7 -3 16 -2 19 1 4 3 -2 6 -13 5 -11 0 -14 -3 -6 -6z"/>
<path d="M2170 6089 c0 -5 5 -7 10 -4 6 3 10 1 10 -5 0 -6 5 -8 10 -5 17 10
11 25 -10 25 -11 0 -20 -5 -20 -11z"/>
<path d="M1416 6081 c-3 -5 1 -11 9 -15 8 -3 15 -1 15 4 0 13 -18 22 -24 11z"/>
<path d="M1973 6073 c-27 -5 -31 -33 -5 -33 9 0 26 -3 37 -5 11 -3 26 -1 34 4
12 8 12 12 2 25 -13 16 -25 17 -68 9z"/>
<path d="M1550 6049 c0 -13 17 -19 34 -13 24 9 19 20 -9 20 -14 0 -25 -3 -25
-7z"/>
<path d="M1680 6051 c0 -6 -12 -8 -32 -4 -18 3 -30 3 -26 -1 12 -14 90 -17 86
-4 -5 15 -28 23 -28 9z"/>
<path d="M2060 6005 c0 -29 19 -43 31 -24 5 9 6 -1 2 -23 -7 -49 9 -49 41 -1
24 35 25 38 8 53 -10 9 -32 17 -50 18 -27 1 -32 -3 -32 -23z"/>
</g>
</svg>
